<?xml version="1.0" encoding="UTF-8" standalone="no"?>
<!-- Created with Inkscape (http://www.inkscape.org/) -->

<svg
   width="490mm"
   height="420mm"
   viewBox="0 0 490 420"
   version="1.1"
   id="svg1"
   xmlns:inkscape="http://www.inkscape.org/namespaces/inkscape"
   xmlns:sodipodi="http://sodipodi.sourceforge.net/DTD/sodipodi-0.dtd"
   xmlns="http://www.w3.org/2000/svg"
   xmlns:svg="http://www.w3.org/2000/svg">
  <sodipodi:namedview
     id="namedview1"
     pagecolor="#ffffff"
     bordercolor="#000000"
     borderopacity="0.25"
     inkscape:showpageshadow="2"
     inkscape:pageopacity="0.0"
     inkscape:pagecheckerboard="0"
     inkscape:deskcolor="#d1d1d1"
     inkscape:document-units="mm"
     showgrid="true">
    <inkscape:grid
       id="grid1"
       units="mm"
       originx="0"
       originy="0"
       spacingx="70"
       spacingy="70"
       empcolor="#0099e5"
       empopacity="0.30196078"
       color="#0099e5"
       opacity="0.14901961"
       empspacing="5"
       dotted="false"
       gridanglex="30"
       gridanglez="30"
       visible="true" />
  </sodipodi:namedview>
  <defs
     id="defs1" />
  <g
     inkscape:label="Layer 1"
     inkscape:groupmode="layer"
     id="layer1">
    <path
       id="rect46"
       style="fill:#0018cb;fill-opacity:1;stroke-width:0.286045"
       d="M 0,0 V 420.0002 H 490.00007 V 0 Z M 34.999931,5.0002116 A 30,30 0 0 1 65.000167,34.999931 30,30 0 0 1 34.999931,65.000167 30,30 0 0 1 5.0002116,34.999931 30,30 0 0 1 34.999931,5.0002116 Z m 69.999859,0 A 30,30 0 0 1 135.00003,34.999931 30,30 0 0 1 104.99979,65.000167 30,30 0 0 1 75.000073,34.999931 30,30 0 0 1 104.99979,5.0002116 Z m 70.00038,0 A 30,30 0 0 1 204.99989,34.999931 30,30 0 0 1 175.00017,65.000167 30,30 0 0 1 144.99993,34.999931 30,30 0 0 1 175.00017,5.0002116 Z m 69.99986,0 A 30,30 0 0 1 274.99975,34.999931 30,30 0 0 1 245.00003,65.000167 30,30 0 0 1 214.9998,34.999931 30,30 0 0 1 245.00003,5.0002116 Z m 69.99986,0 A 30,30 0 0 1 345.00013,34.999931 30,30 0 0 1 314.99989,65.000167 30,30 0 0 1 285.00017,34.999931 30,30 0 0 1 314.99989,5.0002116 Z m 69.99987,0 A 30,30 0 0 1 414.99999,34.999931 30,30 0 0 1 384.99976,65.000167 30,30 0 0 1 355.00004,34.999931 30,30 0 0 1 384.99976,5.0002116 Z m 70.00037,0 A 30,30 0 0 1 484.99985,34.999931 30,30 0 0 1 455.00013,65.000167 30,30 0 0 1 424.9999,34.999931 30,30 0 0 1 455.00013,5.0002116 Z M 34.999931,75.000073 A 30,30 0 0 1 65.000167,104.99979 30,30 0 0 1 34.999931,135.00003 30,30 0 0 1 5.0002116,104.99979 30,30 0 0 1 34.999931,75.000073 Z m 69.999859,0 a 30,30 0 0 1 30.00024,29.999717 30,30 0 0 1 -30.00024,30.00024 30,30 0 0 1 -29.999717,-30.00024 30,30 0 0 1 29.999717,-29.999717 z m 70.00038,0 a 30,30 0 0 1 29.99972,29.999717 30,30 0 0 1 -29.99972,30.00024 30,30 0 0 1 -30.00024,-30.00024 30,30 0 0 1 30.00024,-29.999717 z m 69.99986,0 a 30,30 0 0 1 29.99972,29.999717 30,30 0 0 1 -29.99972,30.00024 30,30 0 0 1 -30.00023,-30.00024 30,30 0 0 1 30.00023,-29.999717 z m 69.99986,0 a 30,30 0 0 1 30.00024,29.999717 30,30 0 0 1 -30.00024,30.00024 30,30 0 0 1 -29.99972,-30.00024 30,30 0 0 1 29.99972,-29.999717 z m 69.99987,0 a 30,30 0 0 1 30.00023,29.999717 30,30 0 0 1 -30.00023,30.00024 30,30 0 0 1 -29.99972,-30.00024 30,30 0 0 1 29.99972,-29.999717 z m 70.00037,0 a 30,30 0 0 1 29.99972,29.999717 30,30 0 0 1 -29.99972,30.00024 30,30 0 0 1 -30.00023,-30.00024 30,30 0 0 1 30.00023,-29.999717 z M 34.999931,144.99993 A 30,30 0 0 1 65.000167,175.00017 30,30 0 0 1 34.999931,204.99989 30,30 0 0 1 5.0002116,175.00017 30,30 0 0 1 34.999931,144.99993 Z m 69.999859,0 a 30,30 0 0 1 30.00024,30.00024 30,30 0 0 1 -30.00024,29.99972 30,30 0 0 1 -29.999717,-29.99972 30,30 0 0 1 29.999717,-30.00024 z m 70.00038,0 a 30,30 0 0 1 29.99972,30.00024 30,30 0 0 1 -29.99972,29.99972 30,30 0 0 1 -30.00024,-29.99972 30,30 0 0 1 30.00024,-30.00024 z m 69.99986,0 a 30,30 0 0 1 29.99972,30.00024 30,30 0 0 1 -29.99972,29.99972 30,30 0 0 1 -30.00023,-29.99972 30,30 0 0 1 30.00023,-30.00024 z m 69.99986,0 a 30,30 0 0 1 30.00024,30.00024 30,30 0 0 1 -30.00024,29.99972 30,30 0 0 1 -29.99972,-29.99972 30,30 0 0 1 29.99972,-30.00024 z m 69.99987,0 a 30,30 0 0 1 30.00023,30.00024 30,30 0 0 1 -30.00023,29.99972 30,30 0 0 1 -29.99972,-29.99972 30,30 0 0 1 29.99972,-30.00024 z m 70.00037,0 a 30,30 0 0 1 29.99972,30.00024 30,30 0 0 1 -29.99972,29.99972 30,30 0 0 1 -30.00023,-29.99972 30,30 0 0 1 30.00023,-30.00024 z M 34.999931,214.9998 A 30,30 0 0 1 65.000167,245.00003 30,30 0 0 1 34.999931,274.99975 30,30 0 0 1 5.0002116,245.00003 30,30 0 0 1 34.999931,214.9998 Z m 69.999859,0 a 30,30 0 0 1 30.00024,30.00023 30,30 0 0 1 -30.00024,29.99972 30,30 0 0 1 -29.999717,-29.99972 30,30 0 0 1 29.999717,-30.00023 z m 70.00038,0 a 30,30 0 0 1 29.99972,30.00023 30,30 0 0 1 -29.99972,29.99972 30,30 0 0 1 -30.00024,-29.99972 30,30 0 0 1 30.00024,-30.00023 z m 69.99986,0 a 30,30 0 0 1 29.99972,30.00023 30,30 0 0 1 -29.99972,29.99972 30,30 0 0 1 -30.00023,-29.99972 30,30 0 0 1 30.00023,-30.00023 z m 69.99986,0 a 30,30 0 0 1 30.00024,30.00023 30,30 0 0 1 -30.00024,29.99972 30,30 0 0 1 -29.99972,-29.99972 30,30 0 0 1 29.99972,-30.00023 z m 69.99987,0 a 30,30 0 0 1 30.00023,30.00023 30,30 0 0 1 -30.00023,29.99972 30,30 0 0 1 -29.99972,-29.99972 30,30 0 0 1 29.99972,-30.00023 z m 70.00037,0 a 30,30 0 0 1 29.99972,30.00023 30,30 0 0 1 -29.99972,29.99972 30,30 0 0 1 -30.00023,-29.99972 30,30 0 0 1 30.00023,-30.00023 z M 34.999931,285.00017 A 30,30 0 0 1 65.000167,314.99989 30,30 0 0 1 34.999931,345.00013 30,30 0 0 1 5.0002116,314.99989 30,30 0 0 1 34.999931,285.00017 Z m 69.999859,0 a 30,30 0 0 1 30.00024,29.99972 30,30 0 0 1 -30.00024,30.00024 30,30 0 0 1 -29.999717,-30.00024 30,30 0 0 1 29.999717,-29.99972 z m 70.00038,0 a 30,30 0 0 1 29.99972,29.99972 30,30 0 0 1 -29.99972,30.00024 30,30 0 0 1 -30.00024,-30.00024 30,30 0 0 1 30.00024,-29.99972 z m 69.99986,0 a 30,30 0 0 1 29.99972,29.99972 30,30 0 0 1 -29.99972,30.00024 30,30 0 0 1 -30.00023,-30.00024 30,30 0 0 1 30.00023,-29.99972 z m 69.99986,0 a 30,30 0 0 1 30.00024,29.99972 30,30 0 0 1 -30.00024,30.00024 30,30 0 0 1 -29.99972,-30.00024 30,30 0 0 1 29.99972,-29.99972 z m 69.99987,0 a 30,30 0 0 1 30.00023,29.99972 30,30 0 0 1 -30.00023,30.00024 30,30 0 0 1 -29.99972,-30.00024 30,30 0 0 1 29.99972,-29.99972 z m 70.00037,0 a 30,30 0 0 1 29.99972,29.99972 30,30 0 0 1 -29.99972,30.00024 30,30 0 0 1 -30.00023,-30.00024 30,30 0 0 1 30.00023,-29.99972 z M 34.999931,355.00004 A 30,30 0 0 1 65.000167,384.99976 30,30 0 0 1 34.999931,414.99999 30,30 0 0 1 5.0002116,384.99976 30,30 0 0 1 34.999931,355.00004 Z m 69.999859,0 a 30,30 0 0 1 30.00024,29.99972 30,30 0 0 1 -30.00024,30.00023 30,30 0 0 1 -29.999717,-30.00023 30,30 0 0 1 29.999717,-29.99972 z m 70.00038,0 a 30,30 0 0 1 29.99972,29.99972 30,30 0 0 1 -29.99972,30.00023 30,30 0 0 1 -30.00024,-30.00023 30,30 0 0 1 30.00024,-29.99972 z m 69.99986,0 a 30,30 0 0 1 29.99972,29.99972 30,30 0 0 1 -29.99972,30.00023 30,30 0 0 1 -30.00023,-30.00023 30,30 0 0 1 30.00023,-29.99972 z m 69.99986,0 a 30,30 0 0 1 30.00024,29.99972 30,30 0 0 1 -30.00024,30.00023 30,30 0 0 1 -29.99972,-30.00023 30,30 0 0 1 29.99972,-29.99972 z m 69.99987,0 a 30,30 0 0 1 30.00023,29.99972 30,30 0 0 1 -30.00023,30.00023 30,30 0 0 1 -29.99972,-30.00023 30,30 0 0 1 29.99972,-29.99972 z m 70.00037,0 a 30,30 0 0 1 29.99972,29.99972 30,30 0 0 1 -29.99972,30.00023 30,30 0 0 1 -30.00023,-30.00023 30,30 0 0 1 30.00023,-29.99972 z" />
  </g>
</svg>
